<svg xmlns="http://www.w3.org/2000/svg" viewBox="0 0 900 280" width="900" height="280">
  <rect width="900" height="280" fill="#0f0f0f"/>
  <text x="20" y="28" fill="#888888" font-family="Segoe UI, Arial, sans-serif" font-size="13">Patient Registration</text>
  <defs>
    <marker id="arrow" markerWidth="10" markerHeight="7" refX="9" refY="3.5" orient="auto">
      <polygon points="0 0, 10 3.5, 0 7" fill="#5b9cf5"/>
    </marker>
  </defs>

  <rect x="30" y="100" width="110" height="44" rx="6" fill="#1a1a1a" stroke="#555555" stroke-width="1.5"/>
  <text x="85" y="127" fill="#e8e8e8" font-family="Segoe UI, Arial, sans-serif" font-size="14" text-anchor="middle">Reception</text>

  <line x1="140" y1="122" x2="175" y2="122" stroke="#666666" stroke-width="1.5"/>
  <rect x="175" y="108" width="160" height="28" rx="14" fill="#1a1a1a" stroke="#555555" stroke-width="1.5"/>
  <text x="255" y="126" fill="#cccccc" font-family="Segoe UI, Arial, sans-serif" font-size="11" text-anchor="middle">POST /patient/register</text>

  <line x1="335" y1="122" x2="370" y2="122" stroke="#5b9cf5" stroke-width="2" marker-end="url(#arrow)"/>
  <rect x="370" y="100" width="150" height="44" rx="6" fill="#1a1a1a" stroke="#555555" stroke-width="1.5"/>
  <text x="445" y="127" fill="#e8e8e8" font-family="Segoe UI, Arial, sans-serif" font-size="13" text-anchor="middle">registerPatientFlow</text>

  <line x1="520" y1="122" x2="555" y2="122" stroke="#666666" stroke-width="1.5"/>
  <rect x="555" y="108" width="130" height="28" rx="14" fill="#1a1a1a" stroke="#555555" stroke-width="1.5"/>
  <text x="620" y="126" fill="#cccccc" font-family="Segoe UI, Arial, sans-serif" font-size="11" text-anchor="middle">BEGIN TRANSACTION</text>

  <line x1="685" y1="122" x2="720" y2="122" stroke="#5b9cf5" stroke-width="2" marker-end="url(#arrow)"/>
  <rect x="720" y="80" width="150" height="36" rx="6" fill="#1a1a1a" stroke="#555555" stroke-width="1.5"/>
  <text x="795" y="103" fill="#e8e8e8" font-family="Segoe UI, Arial, sans-serif" font-size="12" text-anchor="middle">INSERT patient</text>
  <rect x="720" y="128" width="150" height="36" rx="6" fill="#1a1a1a" stroke="#555555" stroke-width="1.5"/>
  <text x="795" y="151" fill="#e8e8e8" font-family="Segoe UI, Arial, sans-serif" font-size="12" text-anchor="middle">INSERT token</text>

  <line x1="795" y1="164" x2="795" y2="195" stroke="#5b9cf5" stroke-width="2" marker-end="url(#arrow)"/>
  <rect x="720" y="195" width="150" height="44" rx="6" fill="#1a1a1a" stroke="#555555" stroke-width="1.5"/>
  <text x="795" y="222" fill="#e8e8e8" font-family="Segoe UI, Arial, sans-serif" font-size="13" text-anchor="middle">Redis PUBLISH</text>

  <line x1="720" y1="217" x2="620" y2="240" stroke="#5b9cf5" stroke-width="1.5" marker-end="url(#arrow)"/>
  <rect x="500" y="220" width="120" height="44" rx="6" fill="#1a1a1a" stroke="#555555" stroke-width="1.5"/>
  <text x="560" y="247" fill="#e8e8e8" font-family="Segoe UI, Arial, sans-serif" font-size="13" text-anchor="middle">SSE Clients</text>

  <line x1="500" y1="240" x2="140" y2="144" stroke="#5b9cf5" stroke-width="1.5" marker-end="url(#arrow)"/>
  <rect x="30" y="200" width="110" height="44" rx="6" fill="#1a1a1a" stroke="#4caf50" stroke-width="1.5"/>
  <text x="85" y="227" fill="#4caf50" font-family="Segoe UI, Arial, sans-serif" font-size="13" text-anchor="middle">201 Created</text>
</svg>
