<svg xmlns="http://www.w3.org/2000/svg" viewBox="0 0 920 220" width="920" height="220">
  <rect width="920" height="220" fill="#0f0f0f"/>
  <text x="20" y="28" fill="#888888" font-family="Segoe UI, Arial, sans-serif" font-size="13">Real-Time Sync</text>

  <defs>
    <marker id="arrow" markerWidth="10" markerHeight="7" refX="9" refY="3.5" orient="auto">
      <polygon points="0 0, 10 3.5, 0 7" fill="#5b9cf5"/>
    </marker>
  </defs>

  <rect x="30" y="80" width="110" height="44" rx="6" fill="#1a1a1a" stroke="#555555" stroke-width="1.5"/>
  <text x="85" y="107" fill="#e8e8e8" font-family="Segoe UI, Arial, sans-serif" font-size="14" text-anchor="middle">Backend</text>

  <line x1="140" y1="102" x2="175" y2="102" stroke="#666666" stroke-width="1.5"/>
  <rect x="175" y="88" width="72" height="28" rx="14" fill="#1a1a1a" stroke="#555555" stroke-width="1.5"/>
  <text x="211" y="106" fill="#cccccc" font-family="Segoe UI, Arial, sans-serif" font-size="12" text-anchor="middle">publish</text>

  <line x1="247" y1="102" x2="282" y2="102" stroke="#5b9cf5" stroke-width="2" marker-end="url(#arrow)"/>
  <rect x="282" y="80" width="130" height="44" rx="6" fill="#1a1a1a" stroke="#555555" stroke-width="1.5"/>
  <text x="347" y="107" fill="#e8e8e8" font-family="Segoe UI, Arial, sans-serif" font-size="14" text-anchor="middle">Redis Pub/Sub</text>

  <line x1="412" y1="102" x2="447" y2="102" stroke="#666666" stroke-width="1.5"/>
  <rect x="447" y="88" width="88" height="28" rx="14" fill="#1a1a1a" stroke="#555555" stroke-width="1.5"/>
  <text x="491" y="106" fill="#cccccc" font-family="Segoe UI, Arial, sans-serif" font-size="12" text-anchor="middle">subscribe</text>

  <line x1="535" y1="102" x2="570" y2="102" stroke="#5b9cf5" stroke-width="2" marker-end="url(#arrow)"/>
  <rect x="570" y="80" width="150" height="44" rx="6" fill="#1a1a1a" stroke="#555555" stroke-width="1.5"/>
  <text x="645" y="107" fill="#e8e8e8" font-family="Segoe UI, Arial, sans-serif" font-size="14" text-anchor="middle">SSE Stream</text>

  <line x1="720" y1="102" x2="755" y2="102" stroke="#5b9cf5" stroke-width="2" marker-end="url(#arrow)"/>
  <rect x="755" y="60" width="130" height="36" rx="6" fill="#1a1a1a" stroke="#555555" stroke-width="1.5"/>
  <text x="820" y="83" fill="#e8e8e8" font-family="Segoe UI, Arial, sans-serif" font-size="13" text-anchor="middle">Display Board</text>
  <rect x="755" y="108" width="130" height="36" rx="6" fill="#1a1a1a" stroke="#555555" stroke-width="1.5"/>
  <text x="820" y="131" fill="#e8e8e8" font-family="Segoe UI, Arial, sans-serif" font-size="13" text-anchor="middle">Doctor Panel</text>
  <rect x="755" y="156" width="130" height="36" rx="6" fill="#1a1a1a" stroke="#555555" stroke-width="1.5"/>
  <text x="820" y="179" fill="#e8e8e8" font-family="Segoe UI, Arial, sans-serif" font-size="13" text-anchor="middle">Reception</text>

  <line x1="755" y1="102" x2="720" y2="78" stroke="#5b9cf5" stroke-width="1.5" marker-end="url(#arrow)"/>
  <line x1="755" y1="102" x2="720" y2="126" stroke="#5b9cf5" stroke-width="1.5" marker-end="url(#arrow)"/>
  <line x1="755" y1="102" x2="720" y2="174" stroke="#5b9cf5" stroke-width="1.5" marker-end="url(#arrow)"/>
</svg>
