<svg xmlns="http://www.w3.org/2000/svg" viewBox="0 0 900 120" width="900" height="120">
  <rect width="900" height="120" fill="#0f0f0f"/>
  <text x="20" y="28" fill="#888888" font-family="Segoe UI, Arial, sans-serif" font-size="13">Token Tracking</text>
  <defs>
    <marker id="arrow" markerWidth="10" markerHeight="7" refX="9" refY="3.5" orient="auto">
      <polygon points="0 0, 10 3.5, 0 7" fill="#5b9cf5"/>
    </marker>
  </defs>

  <rect x="20" y="60" width="200" height="44" rx="6" fill="#1a1a1a" stroke="#555555" stroke-width="1.5"/>
  <text x="120" y="87" fill="#e8e8e8" font-family="Segoe UI, Arial, sans-serif" font-size="12" text-anchor="middle">GET /token/track/DENT-003</text>

  <line x1="220" y1="82" x2="250" y2="82" stroke="#5b9cf5" stroke-width="2" marker-end="url(#arrow)"/>
  <rect x="250" y="60" width="130" height="44" rx="6" fill="#1a1a1a" stroke="#555555" stroke-width="1.5"/>
  <text x="315" y="87" fill="#e8e8e8" font-family="Segoe UI, Arial, sans-serif" font-size="12" text-anchor="middle">Find token in DB</text>

  <line x1="380" y1="82" x2="410" y2="82" stroke="#5b9cf5" stroke-width="2" marker-end="url(#arrow)"/>
  <rect x="410" y="60" width="150" height="44" rx="6" fill="#1a1a1a" stroke="#555555" stroke-width="1.5"/>
  <text x="485" y="87" fill="#e8e8e8" font-family="Segoe UI, Arial, sans-serif" font-size="12" text-anchor="middle">getQueue(dept)</text>

  <line x1="560" y1="82" x2="590" y2="82" stroke="#5b9cf5" stroke-width="2" marker-end="url(#arrow)"/>
  <rect x="590" y="60" width="170" height="44" rx="6" fill="#1a1a1a" stroke="#555555" stroke-width="1.5"/>
  <text x="675" y="87" fill="#e8e8e8" font-family="Segoe UI, Arial, sans-serif" font-size="12" text-anchor="middle">Find index in queue</text>

  <line x1="760" y1="82" x2="790" y2="82" stroke="#5b9cf5" stroke-width="2" marker-end="url(#arrow)"/>
  <rect x="790" y="60" width="90" height="44" rx="6" fill="#1a1a1a" stroke="#4caf50" stroke-width="1.5"/>
  <text x="835" y="87" fill="#4caf50" font-family="Segoe UI, Arial, sans-serif" font-size="11" text-anchor="middle">position</text>
</svg>
